<svg xmlns="http://www.w3.org/2000/svg" xmlns:xlink="http://www.w3.org/1999/xlink" width="2300" zoomAndPan="magnify" viewBox="0 0 1724.88 449.999984" height="600" preserveAspectRatio="xMidYMid meet" version="1.0"><defs><g/><clipPath id="825b8d6ea7"><path d="M 141 18.257812 L 522 18.257812 L 522 431.480469 L 141 431.480469 Z M 141 18.257812 " clip-rule="nonzero"/></clipPath><clipPath id="3655e7e076"><path d="M 1182.503906 308.144531 L 1207.605469 308.144531 L 1207.605469 333.246094 L 1182.503906 333.246094 Z M 1182.503906 308.144531 " clip-rule="nonzero"/></clipPath><clipPath id="519d717ce8"><path d="M 1195.054688 308.144531 C 1188.125 308.144531 1182.503906 313.765625 1182.503906 320.695312 C 1182.503906 327.628906 1188.125 333.246094 1195.054688 333.246094 C 1201.988281 333.246094 1207.605469 327.628906 1207.605469 320.695312 C 1207.605469 313.765625 1201.988281 308.144531 1195.054688 308.144531 Z M 1195.054688 308.144531 " clip-rule="nonzero"/></clipPath></defs><g clip-path="url(#825b8d6ea7)"><path fill="#38b6ff" d="M 292.226562 280.292969 L 220.660156 208.726562 L 220.660156 169.703125 L 331.53125 280.574219 L 410.703125 359.75 C 435.921875 384.964844 477.339844 384.964844 502.554688 359.75 C 527.773438 334.53125 527.773438 293.113281 502.554688 267.894531 L 466.773438 231.972656 L 466.773438 78.132812 C 477.902344 73.34375 485.792969 64.464844 485.792969 49.390625 C 485.792969 34.320312 471.84375 18.117188 454.515625 18.117188 C 437.328125 18.117188 423.242188 34.320312 423.242188 49.390625 C 423.242188 64.464844 431.132812 73.34375 442.261719 78.132812 L 442.261719 207.597656 L 387.882812 153.21875 C 389.289062 149.699219 390.136719 145.753906 390.136719 141.667969 C 390.136719 124.480469 376.1875 110.394531 358.859375 110.394531 C 341.671875 110.394531 327.585938 124.339844 327.585938 141.667969 C 327.585938 158.855469 341.53125 172.941406 358.859375 172.941406 C 363.085938 172.941406 367.03125 172.097656 370.835938 170.546875 L 442.402344 242.113281 L 442.402344 281.136719 L 331.53125 170.265625 L 252.355469 91.09375 C 227.140625 65.875 185.71875 65.875 160.503906 91.09375 C 135.285156 116.308594 135.285156 157.726562 160.503906 182.945312 L 196.285156 218.871094 L 196.285156 371.722656 C 185.15625 376.511719 177.269531 385.386719 177.269531 400.460938 C 177.269531 415.535156 191.214844 431.738281 208.542969 431.738281 C 225.730469 431.738281 239.816406 415.535156 239.816406 400.460938 C 239.816406 385.386719 231.929688 376.511719 220.800781 371.722656 L 220.800781 243.242188 L 275.179688 297.621094 C 273.769531 301.144531 272.925781 305.085938 272.925781 309.171875 C 272.925781 326.359375 286.871094 340.449219 304.199219 340.449219 C 321.386719 340.449219 335.472656 326.5 335.472656 309.171875 C 335.472656 291.984375 321.527344 277.898438 304.199219 277.898438 C 299.972656 277.898438 296.027344 278.742188 292.226562 280.292969 Z M 331.53125 246.058594 L 223.054688 137.582031 C 218.546875 133.074219 211.921875 131.804688 206.007812 134.203125 C 200.089844 136.597656 196.285156 142.230469 196.285156 148.570312 L 196.285156 184.214844 L 177.691406 165.617188 C 161.910156 149.839844 161.910156 123.917969 177.691406 108.28125 C 193.46875 92.5 219.25 92.5 235.027344 108.28125 L 331.53125 204.78125 L 440.007812 313.257812 C 444.515625 317.765625 451.136719 319.035156 457.050781 316.640625 C 462.96875 314.246094 466.773438 308.609375 466.773438 302.269531 L 466.773438 266.628906 L 485.371094 285.222656 C 501.148438 301 501.148438 326.921875 485.371094 342.5625 C 469.589844 358.339844 443.808594 358.339844 428.03125 342.5625 Z M 454.515625 59.675781 C 448.882812 59.675781 444.234375 55.027344 444.234375 49.390625 C 444.234375 43.757812 448.882812 39.109375 454.515625 39.109375 C 460.152344 39.109375 464.800781 43.757812 464.800781 49.390625 C 464.800781 55.027344 460.152344 59.675781 454.515625 59.675781 Z M 367.03125 148.007812 L 365.058594 149.980469 C 363.367188 151.246094 361.113281 152.09375 358.859375 152.09375 C 353.226562 152.09375 348.574219 147.445312 348.574219 141.808594 C 348.574219 136.171875 353.226562 131.523438 358.859375 131.523438 C 364.496094 131.523438 369.144531 136.171875 369.144531 141.808594 C 369.144531 144.203125 368.300781 146.316406 367.03125 148.007812 Z M 208.402344 390.320312 C 214.035156 390.320312 218.6875 394.96875 218.6875 400.601562 C 218.6875 406.238281 214.035156 410.886719 208.402344 410.886719 C 202.765625 410.886719 198.117188 406.238281 198.117188 400.601562 C 198.117188 394.96875 202.765625 390.320312 208.402344 390.320312 Z M 295.886719 302.972656 L 297.859375 301 C 299.550781 299.734375 301.804688 298.890625 304.058594 298.890625 C 309.695312 298.890625 314.34375 303.539062 314.34375 309.171875 C 314.34375 314.808594 309.695312 319.457031 304.058594 319.457031 C 298.421875 319.457031 293.773438 314.808594 293.773438 309.171875 C 293.773438 306.777344 294.621094 304.664062 295.886719 302.972656 Z M 295.886719 302.972656 " fill-opacity="1" fill-rule="evenodd"/></g><g fill="#38b6ff" fill-opacity="1"><g transform="translate(554.93377, 208.5265)"><g><path d="M 89.609375 0 L 67.40625 0 L 30.265625 -56.234375 L 30.265625 0 L 8.046875 0 L 8.046875 -91.171875 L 30.265625 -91.171875 L 67.40625 -34.671875 L 67.40625 -91.171875 L 89.609375 -91.171875 Z M 89.609375 0 "/></g></g></g><g fill="#38b6ff" fill-opacity="1"><g transform="translate(669.999525, 208.5265)"><g><path d="M 51.171875 0.90625 C 42.597656 0.90625 34.738281 -1.082031 27.59375 -5.0625 C 20.457031 -9.050781 14.785156 -14.613281 10.578125 -21.75 C 6.378906 -28.894531 4.28125 -36.925781 4.28125 -45.84375 C 4.28125 -54.757812 6.378906 -62.765625 10.578125 -69.859375 C 14.785156 -76.960938 20.457031 -82.503906 27.59375 -86.484375 C 34.738281 -90.472656 42.597656 -92.46875 51.171875 -92.46875 C 59.742188 -92.46875 67.597656 -90.472656 74.734375 -86.484375 C 81.878906 -82.503906 87.507812 -76.960938 91.625 -69.859375 C 95.738281 -62.765625 97.796875 -54.757812 97.796875 -45.84375 C 97.796875 -36.925781 95.71875 -28.894531 91.5625 -21.75 C 87.40625 -14.613281 81.773438 -9.050781 74.671875 -5.0625 C 67.578125 -1.082031 59.742188 0.90625 51.171875 0.90625 Z M 51.171875 -19.34375 C 58.441406 -19.34375 64.265625 -21.765625 68.640625 -26.609375 C 73.015625 -31.460938 75.203125 -37.875 75.203125 -45.84375 C 75.203125 -53.894531 73.015625 -60.320312 68.640625 -65.125 C 64.265625 -69.9375 58.441406 -72.34375 51.171875 -72.34375 C 43.804688 -72.34375 37.9375 -69.957031 33.5625 -65.1875 C 29.195312 -60.425781 27.015625 -53.976562 27.015625 -45.84375 C 27.015625 -37.789062 29.195312 -31.359375 33.5625 -26.546875 C 37.9375 -21.742188 43.804688 -19.34375 51.171875 -19.34375 Z M 51.171875 -19.34375 "/></g></g></g><g fill="#38b6ff" fill-opacity="1"><g transform="translate(789.480858, 208.5265)"><g><path d="M 54.546875 0 L 35.578125 -34.421875 L 30.265625 -34.421875 L 30.265625 0 L 8.046875 0 L 8.046875 -91.171875 L 45.328125 -91.171875 C 52.515625 -91.171875 58.640625 -89.914062 63.703125 -87.40625 C 68.765625 -84.894531 72.550781 -81.453125 75.0625 -77.078125 C 77.570312 -72.703125 78.828125 -67.832031 78.828125 -62.46875 C 78.828125 -56.40625 77.117188 -50.992188 73.703125 -46.234375 C 70.285156 -41.472656 65.242188 -38.097656 58.578125 -36.109375 L 79.609375 0 Z M 30.265625 -50.125 L 44.03125 -50.125 C 48.09375 -50.125 51.140625 -51.117188 53.171875 -53.109375 C 55.210938 -55.109375 56.234375 -57.925781 56.234375 -61.5625 C 56.234375 -65.019531 55.210938 -67.742188 53.171875 -69.734375 C 51.140625 -71.734375 48.09375 -72.734375 44.03125 -72.734375 L 30.265625 -72.734375 Z M 30.265625 -50.125 "/></g></g></g><g fill="#38b6ff" fill-opacity="1"><g transform="translate(891.559628, 208.5265)"><g><path d="M 73.640625 -91.171875 L 73.640625 -73.375 L 49.484375 -73.375 L 49.484375 0 L 27.28125 0 L 27.28125 -73.375 L 3.109375 -73.375 L 3.109375 -91.171875 Z M 73.640625 -91.171875 "/></g></g></g><g fill="#38b6ff" fill-opacity="1"><g transform="translate(985.716343, 208.5265)"><g><path d="M 87.015625 -91.171875 L 87.015625 0 L 64.8125 0 L 64.8125 -37.53125 L 30.265625 -37.53125 L 30.265625 0 L 8.046875 0 L 8.046875 -91.171875 L 30.265625 -91.171875 L 30.265625 -55.453125 L 64.8125 -55.453125 L 64.8125 -91.171875 Z M 87.015625 -91.171875 "/></g></g></g><g fill="#38b6ff" fill-opacity="1"><g transform="translate(1098.054852, 208.5265)"><g><path d="M 30.265625 -73.375 L 30.265625 -54.9375 L 60 -54.9375 L 60 -37.796875 L 30.265625 -37.796875 L 30.265625 -17.796875 L 63.90625 -17.796875 L 63.90625 0 L 8.046875 0 L 8.046875 -91.171875 L 63.90625 -91.171875 L 63.90625 -73.375 Z M 30.265625 -73.375 "/></g></g></g><g fill="#38b6ff" fill-opacity="1"><g transform="translate(1185.718091, 208.5265)"><g><path d="M 54.546875 0 L 35.578125 -34.421875 L 30.265625 -34.421875 L 30.265625 0 L 8.046875 0 L 8.046875 -91.171875 L 45.328125 -91.171875 C 52.515625 -91.171875 58.640625 -89.914062 63.703125 -87.40625 C 68.765625 -84.894531 72.550781 -81.453125 75.0625 -77.078125 C 77.570312 -72.703125 78.828125 -67.832031 78.828125 -62.46875 C 78.828125 -56.40625 77.117188 -50.992188 73.703125 -46.234375 C 70.285156 -41.472656 65.242188 -38.097656 58.578125 -36.109375 L 79.609375 0 Z M 30.265625 -50.125 L 44.03125 -50.125 C 48.09375 -50.125 51.140625 -51.117188 53.171875 -53.109375 C 55.210938 -55.109375 56.234375 -57.925781 56.234375 -61.5625 C 56.234375 -65.019531 55.210938 -67.742188 53.171875 -69.734375 C 51.140625 -71.734375 48.09375 -72.734375 44.03125 -72.734375 L 30.265625 -72.734375 Z M 30.265625 -50.125 "/></g></g></g><g fill="#38b6ff" fill-opacity="1"><g transform="translate(1287.796862, 208.5265)"><g><path d="M 89.609375 0 L 67.40625 0 L 30.265625 -56.234375 L 30.265625 0 L 8.046875 0 L 8.046875 -91.171875 L 30.265625 -91.171875 L 67.40625 -34.671875 L 67.40625 -91.171875 L 89.609375 -91.171875 Z M 89.609375 0 "/></g></g></g><g fill="#ffffff" fill-opacity="1"><g transform="translate(554.93377, 331.517938)"><g><path d="M 65.71875 -90.515625 L 65.71875 -80.90625 L 41.046875 -80.90625 L 41.046875 0 L 29.21875 0 L 29.21875 -80.90625 L 4.421875 -80.90625 L 4.421875 -90.515625 Z M 65.71875 -90.515625 "/></g></g></g><g fill="#ffffff" fill-opacity="1"><g transform="translate(642.597004, 331.517938)"><g><path d="M 21.8125 -80.90625 L 21.8125 -50.65625 L 54.8125 -50.65625 L 54.8125 -40.90625 L 21.8125 -40.90625 L 21.8125 -9.734375 L 58.703125 -9.734375 L 58.703125 0 L 10 0 L 10 -90.65625 L 58.703125 -90.65625 L 58.703125 -80.90625 Z M 21.8125 -80.90625 "/></g></g></g><g fill="#ffffff" fill-opacity="1"><g transform="translate(726.623879, 331.517938)"><g><path d="M 5.578125 -45.328125 C 5.578125 -54.160156 7.566406 -62.101562 11.546875 -69.15625 C 15.535156 -76.21875 20.972656 -81.738281 27.859375 -85.71875 C 34.742188 -89.695312 42.382812 -91.6875 50.78125 -91.6875 C 60.65625 -91.6875 69.269531 -89.304688 76.625 -84.546875 C 83.988281 -79.785156 89.359375 -73.03125 92.734375 -64.28125 L 78.578125 -64.28125 C 76.066406 -69.738281 72.453125 -73.9375 67.734375 -76.875 C 63.015625 -79.820312 57.363281 -81.296875 50.78125 -81.296875 C 44.457031 -81.296875 38.785156 -79.820312 33.765625 -76.875 C 28.742188 -73.9375 24.800781 -69.757812 21.9375 -64.34375 C 19.082031 -58.9375 17.65625 -52.597656 17.65625 -45.328125 C 17.65625 -38.140625 19.082031 -31.835938 21.9375 -26.421875 C 24.800781 -21.015625 28.742188 -16.835938 33.765625 -13.890625 C 38.785156 -10.953125 44.457031 -9.484375 50.78125 -9.484375 C 57.363281 -9.484375 63.015625 -10.929688 67.734375 -13.828125 C 72.453125 -16.734375 76.066406 -20.910156 78.578125 -26.359375 L 92.734375 -26.359375 C 89.359375 -17.703125 83.988281 -11.015625 76.625 -6.296875 C 69.269531 -1.578125 60.65625 0.78125 50.78125 0.78125 C 42.382812 0.78125 34.742188 -1.1875 27.859375 -5.125 C 20.972656 -9.070312 15.535156 -14.550781 11.546875 -21.5625 C 7.566406 -28.570312 5.578125 -36.492188 5.578125 -45.328125 Z M 5.578125 -45.328125 "/></g></g></g><g fill="#ffffff" fill-opacity="1"><g transform="translate(844.287033, 331.517938)"><g><path d="M 79.75 -90.515625 L 79.75 0 L 67.921875 0 L 67.921875 -41.046875 L 21.8125 -41.046875 L 21.8125 0 L 10 0 L 10 -90.515625 L 21.8125 -90.515625 L 21.8125 -50.78125 L 67.921875 -50.78125 L 67.921875 -90.515625 Z M 79.75 -90.515625 "/></g></g></g><g fill="#ffffff" fill-opacity="1"><g transform="translate(951.560579, 331.517938)"><g><path d="M 21.8125 -90.515625 L 21.8125 0 L 10 0 L 10 -90.515625 Z M 21.8125 -90.515625 "/></g></g></g><g fill="#ffffff" fill-opacity="1"><g transform="translate(1000.912216, 331.517938)"><g><path d="M 21.8125 -80.90625 L 21.8125 -50.65625 L 54.8125 -50.65625 L 54.8125 -40.90625 L 21.8125 -40.90625 L 21.8125 -9.734375 L 58.703125 -9.734375 L 58.703125 0 L 10 0 L 10 -90.65625 L 58.703125 -90.65625 L 58.703125 -80.90625 Z M 21.8125 -80.90625 "/></g></g></g><g fill="#ffffff" fill-opacity="1"><g transform="translate(1084.939096, 331.517938)"><g><path d="M 38.703125 0.90625 C 32.722656 0.90625 27.375 -0.148438 22.65625 -2.265625 C 17.9375 -4.390625 14.234375 -7.332031 11.546875 -11.09375 C 8.867188 -14.863281 7.488281 -19.21875 7.40625 -24.15625 L 20 -24.15625 C 20.4375 -19.914062 22.191406 -16.34375 25.265625 -13.4375 C 28.335938 -10.539062 32.816406 -9.09375 38.703125 -9.09375 C 44.328125 -9.09375 48.765625 -10.5 52.015625 -13.3125 C 55.265625 -16.125 56.890625 -19.738281 56.890625 -24.15625 C 56.890625 -27.625 55.9375 -30.4375 54.03125 -32.59375 C 52.125 -34.757812 49.738281 -36.40625 46.875 -37.53125 C 44.019531 -38.65625 40.171875 -39.867188 35.328125 -41.171875 C 29.347656 -42.734375 24.5625 -44.289062 20.96875 -45.84375 C 17.375 -47.40625 14.300781 -49.851562 11.75 -53.1875 C 9.195312 -56.519531 7.921875 -61 7.921875 -66.625 C 7.921875 -71.5625 9.175781 -75.929688 11.6875 -79.734375 C 14.195312 -83.546875 17.722656 -86.488281 22.265625 -88.5625 C 26.816406 -90.644531 32.035156 -91.6875 37.921875 -91.6875 C 46.410156 -91.6875 53.359375 -89.566406 58.765625 -85.328125 C 64.179688 -81.085938 67.234375 -75.457031 67.921875 -68.4375 L 54.9375 -68.4375 C 54.5 -71.90625 52.675781 -74.957031 49.46875 -77.59375 C 46.269531 -80.238281 42.03125 -81.5625 36.75 -81.5625 C 31.820312 -81.5625 27.796875 -80.285156 24.671875 -77.734375 C 21.554688 -75.179688 20 -71.609375 20 -67.015625 C 20 -63.722656 20.925781 -61.035156 22.78125 -58.953125 C 24.644531 -56.878906 26.941406 -55.300781 29.671875 -54.21875 C 32.398438 -53.132812 36.234375 -51.898438 41.171875 -50.515625 C 47.140625 -48.867188 51.941406 -47.242188 55.578125 -45.640625 C 59.222656 -44.046875 62.34375 -41.582031 64.9375 -38.25 C 67.53125 -34.914062 68.828125 -30.390625 68.828125 -24.671875 C 68.828125 -20.253906 67.660156 -16.097656 65.328125 -12.203125 C 62.992188 -8.304688 59.53125 -5.144531 54.9375 -2.71875 C 50.34375 -0.300781 44.929688 0.90625 38.703125 0.90625 Z M 38.703125 0.90625 "/></g></g></g><g fill="#ffffff" fill-opacity="1"><g transform="translate(1178.576331, 331.517938)"><g/></g></g><g fill="#ffffff" fill-opacity="1"><g transform="translate(1230.655225, 331.517938)"><g><path d="M 101.828125 -89.875 L 101.828125 0 L 90 0 L 90 -67.015625 L 60.125 0 L 51.8125 0 L 21.8125 -67.140625 L 21.8125 0 L 10 0 L 10 -89.875 L 22.734375 -89.875 L 55.96875 -15.578125 L 89.21875 -89.875 Z M 101.828125 -89.875 "/></g></g></g><g fill="#ffffff" fill-opacity="1"><g transform="translate(1359.876757, 331.517938)"><g><path d="M 63.515625 -20.125 L 24.03125 -20.125 L 16.75 0 L 4.28125 0 L 37.015625 -90 L 50.65625 -90 L 83.25 0 L 70.78125 0 Z M 60.125 -29.734375 L 43.765625 -75.453125 L 27.40625 -29.734375 Z M 60.125 -29.734375 "/></g></g></g><g fill="#ffffff" fill-opacity="1"><g transform="translate(1464.812689, 331.517938)"><g><path d="M 81.171875 0 L 69.359375 0 L 21.8125 -72.078125 L 21.8125 0 L 10 0 L 10 -90.65625 L 21.8125 -90.65625 L 69.359375 -18.703125 L 69.359375 -90.65625 L 81.171875 -90.65625 Z M 81.171875 0 "/></g></g></g><g clip-path="url(#3655e7e076)"><g clip-path="url(#519d717ce8)"><path fill="#1f8eeb" d="M 1182.503906 308.144531 L 1207.605469 308.144531 L 1207.605469 333.246094 L 1182.503906 333.246094 Z M 1182.503906 308.144531 " fill-opacity="1" fill-rule="nonzero"/></g></g></svg>